<?xml version="1.0" encoding="UTF-8" standalone="no"?>
<!-- Uploaded to: SVG Repo, www.svgrepo.com, Generator: SVG Repo Mixer Tools -->

<svg
   fill="#000000"
   width="32"
   height="38.857143"
   viewBox="-24 0 20.48 24.868572"
   version="1.1"
   id="svg6"
   sodipodi:docname="replay-svgrepo-com.svg"
   inkscape:version="1.1.1 (3bf5ae0d25, 2021-09-20)"
   xmlns:inkscape="http://www.inkscape.org/namespaces/inkscape"
   xmlns:sodipodi="http://sodipodi.sourceforge.net/DTD/sodipodi-0.dtd"
   xmlns="http://www.w3.org/2000/svg"
   xmlns:svg="http://www.w3.org/2000/svg">
  <defs
     id="defs10" />
  <sodipodi:namedview
     id="namedview8"
     pagecolor="#ffffff"
     bordercolor="#666666"
     borderopacity="1.0"
     inkscape:pageshadow="2"
     inkscape:pageopacity="0.0"
     inkscape:pagecheckerboard="0"
     showgrid="false"
     inkscape:zoom="11.030766"
     inkscape:cx="10.289403"
     inkscape:cy="36.579507"
     inkscape:window-width="1920"
     inkscape:window-height="1012"
     inkscape:window-x="0"
     inkscape:window-y="32"
     inkscape:window-maximized="1"
     inkscape:current-layer="svg6" />
  <title
     id="title2">replay</title>
  <path
     d="m -13.76,24.868571 q -2.80381,0 -5.12,-1.401904 -2.377143,-1.401905 -3.718095,-3.779048 Q -24,17.310476 -24,14.506667 v -1.340953 h 2.925714 v 1.462857 q 0,3.108572 2.133334,5.241905 2.133333,2.072381 5.241904,2.072381 1.950477,0 3.657143,-0.975238 1.645715,-1.03619 2.620953,-2.681905 0.975238,-1.645714 0.975238,-3.59619 0,-3.108572 -2.072381,-5.241905 Q -10.651429,7.314286 -13.76,7.314286 v 4.388571 L -19.611429,5.851429 -13.76,0 v 4.388571 q 2.864762,0 5.180952,1.340953 2.316191,1.401905 3.718096,3.779047 1.340952,2.316191 1.340952,5.12 0,2.864762 -1.340952,5.12 -1.340953,2.377143 -3.718096,3.779048 -2.438095,1.340952 -5.180952,1.340952 z"
     id="path4"
     style="stroke-width:0.0609524;fill:#434343;fill-opacity:1" />
</svg>
